<svg xmlns="http://www.w3.org/2000/svg" viewBox="0 0 757.33 86"><symbol width="130" height="500" id="the-logo" viewBox="200 200">
	<defs><style>.cls-1{fill:#e62d44;}.cls-2{font-size:12.82px;fill:#fff;font-family:Gotham-Medium, Gotham Medium;letter-spacing:0.4em;}</style></defs><g id="Layer_2" data-name="Layer 2"><g id="Layer_1-2" data-name="Layer 1"><path class="cls-1" d="M129.93,0V24.3H77.84a53.54,53.54,0,1,0,0,107.09h52.09v24.3H77.84A77.84,77.84,0,1,1,77.84,0ZM63.65,89.92h66.29V65.62H63.65Z"/><path class="cls-1" d="M682.41,67.52v88.16h-24.3V67.52a12.15,12.15,0,0,1,24.3,0ZM670.26,34.1a17.05,17.05,0,1,0-17.05-17.05A17.05,17.05,0,0,0,670.26,34.1Z"/><path class="cls-1" d="M351.73,77.84a77.93,77.93,0,0,1-77.84,77.84H221.8v-24.3h52.09a53.54,53.54,0,1,0,0-107.09H253.51a7.41,7.41,0,0,0-7.4,7.4V65.62h-24.3V31.7A31.74,31.74,0,0,1,253.51,0h20.38A77.93,77.93,0,0,1,351.73,77.84Z"/><path class="cls-1" d="M432.59,77.84A77.93,77.93,0,0,1,510.44,0h38.31V24.3H510.44a53.54,53.54,0,1,0,0,107.09h15.61c7.38,0,12.17-5.88,12.17-12.81V90.06h24.3v30.62c0,17.48-17.13,35-34.5,35H510.44A77.93,77.93,0,0,1,432.59,77.84Z"/><text class="cls-2" transform="translate(426.58 224.01)">STUDIO</text></g></g>
</symbol>
	<symbol transform="rotate(90,0,0)" width="50" height="200" id="vertical-logo" xmlns="http://www.w3.org/2000/svg" viewBox="0 0 58.17 174.37"><defs><style>.cls-1{fill:#e62d44;}.cls-2{font-size:11.79px;font-family:Gotham-Medium, Gotham Medium;letter-spacing:0.44em;}</style></defs><g id="Layer_2" data-name="Layer 2"><g id="Layer_1-2" data-name="Layer 1"><path class="cls-1" d="M0,142.34H6v12.84a13.2,13.2,0,1,0,26.4,0V142.34h6v12.84a19.19,19.19,0,1,1-38.38,0Zm22.17,16.34V142.34h-6v16.34Z"/><path class="cls-1" d="M16.65,6.14H38.38v6H16.65a3,3,0,1,1,0-6Zm-8.24,3a4.2,4.2,0,1,0-4.2,4.2A4.2,4.2,0,0,0,8.41,9.14Z"/><path class="cls-1" d="M19.19,87.66a19.21,19.21,0,0,1,19.19,19.19v12.84h-6V106.85a13.2,13.2,0,1,0-26.4,0v5a1.83,1.83,0,0,0,1.83,1.83h8.36v6H7.82A7.82,7.82,0,0,1,0,111.88v-5A19.21,19.21,0,0,1,19.19,87.66Z"/><path class="cls-1" d="M19.19,67.73A19.21,19.21,0,0,1,0,48.54V39.09H6v9.45a13.2,13.2,0,1,0,26.4,0V44.69a3,3,0,0,0-3.16-3h-7v-6h7.55c4.31,0,8.63,4.22,8.63,8.5v4.33A19.21,19.21,0,0,1,19.19,67.73Z"/><text class="cls-2" transform="translate(55.22 69.21) rotate(-90)">STUDIO</text></g></g></symbol>
	<symbol id="vertical_black" xmlns="http://www.w3.org/2000/svg" viewBox="0 0 47.19 141.47"><defs><style>.cls-1{fill:#e62d44;}.cls-2{font-size:9.56px;fill:#050505;font-family:Gotham-Medium, Gotham Medium;letter-spacing:0.44em;}</style></defs><title>vertical_black</title><g id="Layer_2" data-name="Layer 2"><g id="Layer_1-2" data-name="Layer 1"><path class="cls-1" d="M0,115.48H4.86V125.9a10.71,10.71,0,1,0,21.42,0V115.48h4.86V125.9A15.57,15.57,0,1,1,0,125.9Zm18,13.26V115.48H13.12v13.26Z"/><path class="cls-1" d="M13.5,5H31.14V9.84H13.5A2.43,2.43,0,0,1,13.5,5ZM6.82,7.41a3.41,3.41,0,1,0-3.41,3.41A3.41,3.41,0,0,0,6.82,7.41Z"/><path class="cls-1" d="M15.57,71.12A15.59,15.59,0,0,1,31.14,86.69V97.11H26.28V86.69a10.71,10.71,0,1,0-21.42,0v4.08a1.48,1.48,0,0,0,1.48,1.48h6.78V97.1H6.34A6.35,6.35,0,0,1,0,90.76V86.69A15.59,15.59,0,0,1,15.57,71.12Z"/><path class="cls-1" d="M15.57,54.95A15.59,15.59,0,0,1,0,39.38V31.71H4.86v7.66a10.71,10.71,0,1,0,21.42,0V36.25a2.44,2.44,0,0,0-2.56-2.43H18V29h6.12c3.5,0,7,3.43,7,6.9v3.52A15.59,15.59,0,0,1,15.57,54.95Z"/><text class="cls-2" transform="translate(44.8 56.15) rotate(-90)">STUDIO</text></g></g></symbol>
	<symbol id="horizontal_black" xmlns="http://www.w3.org/2000/svg" viewBox="0 0 700 250" width="170px" height="auto"><title>horizontal_small_black_2</title>
	<g>
		<path d="M129.93,0V24.3H77.84a53.54,53.54,0,1,0,0,107.09h52.09v24.3H77.84A77.84,77.84,0,1,1,77.84,0Z" fill="#e62d44"/><path d="M680.47,67.52v88.16h-24.3V67.52a12.15,12.15,0,0,1,24.3,0ZM668.32,34.1a17.05,17.05,0,1,0-17.05-17.05A17.05,17.05,0,0,0,668.32,34.1Z" fill="#e62d44"/><path d="M77.8,65.62h52.13v24.3H77.8a12.15,12.15,0,0,1,0-24.3Z" fill="#e62d44"/><path d="M351.73,77.84a77.93,77.93,0,0,1-77.84,77.84H221.8v-24.3h52.09a53.54,53.54,0,1,0,0-107.09H253.51a7.41,7.41,0,0,0-7.4,7.4V65.62h-24.3V31.7A31.74,31.74,0,0,1,253.51,0h20.38A77.93,77.93,0,0,1,351.73,77.84Z" fill="#e62d44"/><path d="M430.66,77.84A77.93,77.93,0,0,1,508.5,0h38.31V24.3H508.5a53.54,53.54,0,1,0,0,107.09h15.61c7.38,0,12.17-5.88,12.17-12.81V90.06h24.3v30.62c0,17.48-17.13,35-34.5,35H508.5A77.93,77.93,0,0,1,430.66,77.84Z" fill="#e62d44"/><path d="M219.09,222.29v-.1c0-8.6,5.84-13.46,12-13.46a10.73,10.73,0,0,1,8.84,4.57v-14h5.94v35.86H240v-4.32a10.38,10.38,0,0,1-8.84,4.86C225,235.75,219.09,230.89,219.09,222.29Zm21,0v-.1c0-5-3.54-8.3-7.51-8.3s-7.47,3.14-7.47,8.3v.1c0,5,3.44,8.3,7.47,8.3S240.06,227.25,240.06,222.29Z" fill="#000"/><path d="M273.52,222.34v-.1c0-7.42,5.26-13.51,12.67-13.51,8.25,0,12.43,6.48,12.43,13.95,0,.54,0,1.08-.1,1.67H279.47a7.24,7.24,0,0,0,7.47,6.58,9.41,9.41,0,0,0,7-3.09l3.49,3.09a13.12,13.12,0,0,1-10.61,4.86C279.32,235.8,273.52,230.35,273.52,222.34Zm19.21-1.92c-.39-3.83-2.65-6.83-6.58-6.83-3.63,0-6.19,2.8-6.73,6.83Z" fill="#000"/><path d="M324.12,231.82l2.65-4a14.55,14.55,0,0,0,8.5,3.19c2.55,0,4-1.08,4-2.8v-.1c0-2-2.75-2.7-5.8-3.63-3.83-1.08-8.1-2.65-8.1-7.61v-.1c0-4.91,4.08-7.91,9.23-7.91a18,18,0,0,1,9.53,2.95L341.8,216a15.05,15.05,0,0,0-7.32-2.46c-2.31,0-3.63,1.08-3.63,2.6v.1c0,1.87,2.8,2.65,5.85,3.63,3.78,1.18,8.05,2.9,8.05,7.56v.1c0,5.45-4.22,8.15-9.63,8.15A18.22,18.22,0,0,1,324.12,231.82Z" fill="#000"/><path d="M372.51,199.65h6.39v5.65h-6.39Zm.25,9.63h5.94v25.93h-5.94Z" fill="#000"/><path d="M408,240.07l2.21-4.47a16.87,16.87,0,0,0,9.23,2.75c5.31,0,8.2-2.75,8.2-8v-2c-2.16,2.8-4.86,4.76-9.14,4.76A11.65,11.65,0,0,1,406.75,221v-.1a11.69,11.69,0,0,1,11.79-12.18,11.19,11.19,0,0,1,9.09,4.42v-3.88h5.94v20.63c0,4.37-1.13,7.61-3.29,9.77-2.36,2.36-6,3.49-10.66,3.49A22.33,22.33,0,0,1,408,240.07ZM427.72,221v-.1c0-4.27-3.49-7.17-7.61-7.17a7,7,0,0,0-7.37,7.12v.1a7.07,7.07,0,0,0,7.37,7.17C424.23,228.14,427.72,225.19,427.72,221Z" fill="#000"/><path d="M462.6,209.28h5.94v4a9.33,9.33,0,0,1,8.1-4.57c5.85,0,9.23,3.93,9.23,10v16.5h-5.94V220.48c0-4-2-6.34-5.55-6.34s-5.85,2.41-5.85,6.43v14.64H462.6Z" fill="#000"/><path d="M551,199.35H557v14a9.33,9.33,0,0,1,8.1-4.57c5.85,0,9.23,3.93,9.23,10v16.5h-5.94V220.48c0-4-2-6.34-5.55-6.34s-5.85,2.41-5.85,6.43v14.64H551Z" fill="#000"/><path d="M602.81,225.78v-16.5h5.94V224c0,4,2,6.34,5.55,6.34s5.85-2.41,5.85-6.43V209.28h5.94v25.93h-5.94v-4a9.34,9.34,0,0,1-8.1,4.57C606.19,235.75,602.81,231.82,602.81,225.78Z" fill="#000"/><path d="M661.12,231.18v4h-5.94V199.35h5.94V213.6a10.36,10.36,0,0,1,8.79-4.86c6.14,0,12.08,4.86,12.08,13.46v.1c0,8.6-5.89,13.46-12.08,13.46A10.57,10.57,0,0,1,661.12,231.18Zm14.83-8.89v-.1c0-5-3.39-8.3-7.42-8.3s-7.56,3.34-7.56,8.3v.1c0,5,3.54,8.3,7.56,8.3S675.95,227.4,675.95,222.29Z" fill="#000"/>
	</g>
	</symbol>
	<symbol id="horizontal_fill" xmlns="http://www.w3.org/2000/svg" viewBox="0 0 200 52.75"><title>horizontal_fill</title><g id="Layer_1-2"><rect x="51.59" y="-51.59" width="75.4" height="178.57" transform="translate(126.98 -51.59) rotate(90)" fill="#ed2c43"/><path d="M39.65,9.33v5.67h-12.15c-6.89,0-12.49,5.6-12.49,12.49s5.6,12.49,12.49,12.49h12.15v5.67h-12.15c-10.01,0-18.16-8.15-18.16-18.16S17.48,9.33,27.49,9.33h12.15Z" fill="#fff"/><path d="M168.09,25.09v20.57h-5.67v-20.57c0-1.57,1.27-2.83,2.83-2.83s2.83,1.27,2.83,2.83ZM165.26,17.29c2.2,0,3.98-1.78,3.98-3.98s-1.78-3.98-3.98-3.98-3.98,1.78-3.98,3.98,1.78,3.98,3.98,3.98Z" fill="#fff"/><path d="M27.48,24.64h12.16v5.67h-12.16c-1.57,0-2.83-1.27-2.83-2.83s1.27-2.83,2.83-2.83Z" fill="#fff"/><path d="M91.39,27.49c0,10.01-8.15,18.16-18.16,18.16h-12.15v-5.67h12.15c6.89,0,12.49-5.6,12.49-12.49s-5.6-12.49-12.49-12.49h-4.75c-.95,0-1.73.77-1.73,1.73v7.91h-5.67v-7.91c0-4.08,3.32-7.4,7.4-7.4h4.75c10.01,0,18.16,8.15,18.16,18.16Z" fill="#fff"/><path d="M109.81,27.49c0-10.01,8.15-18.16,18.16-18.16h8.94s0,5.67,0,5.67h-8.94c-6.89,0-12.49,5.6-12.49,12.49s5.6,12.49,12.49,12.49h3.33s.17,0,.17,0h.15c1.72,0,2.84-1.37,2.84-2.99v-6.65s5.67,0,5.67,0v7.14c0,4.08-4,8.17-8.05,8.17h-.19s-.59,0-.59,0h-3.33c-10.01,0-18.16-8.15-18.16-18.16Z" fill="#fff"/><path d="M60.45,61.2v-.02c0-2.01,1.36-3.14,2.81-3.14,1,0,1.63.5,2.06,1.07v-3.25h1.39v8.37h-1.39v-1.01c-.45.63-1.08,1.13-2.06,1.13-1.42,0-2.81-1.13-2.81-3.14ZM65.34,61.2v-.02c0-1.17-.83-1.94-1.75-1.94s-1.74.73-1.74,1.94v.02c0,1.17.8,1.94,1.74,1.94s1.75-.78,1.75-1.94Z" fill="#fff"/><path d="M73.15,61.21v-.02c0-1.73,1.23-3.15,2.96-3.15,1.93,0,2.9,1.51,2.9,3.25,0,.13-.01.25-.02.39h-4.45c.15.99.85,1.54,1.74,1.54.68,0,1.16-.25,1.64-.72l.81.72c-.57.69-1.36,1.13-2.48,1.13-1.75,0-3.11-1.27-3.11-3.14ZM77.63,60.76c-.09-.89-.62-1.59-1.54-1.59-.85,0-1.44.65-1.57,1.59h3.11Z" fill="#fff"/><path d="M84.95,63.42l.62-.94c.65.49,1.36.74,1.98.74s.94-.25.94-.65v-.02c0-.47-.64-.63-1.35-.85-.89-.25-1.89-.62-1.89-1.78v-.02c0-1.15.95-1.84,2.15-1.84.76,0,1.58.26,2.22.69l-.55.99c-.58-.36-1.2-.57-1.71-.57-.54,0-.85.25-.85.61v.02c0,.44.65.62,1.36.85.88.28,1.88.68,1.88,1.76v.02c0,1.27-.99,1.9-2.25,1.9-.86,0-1.81-.31-2.57-.91Z" fill="#fff"/><path d="M96.24,55.91h1.49v1.32h-1.49v-1.32ZM96.3,58.16h1.39v6.05h-1.39v-6.05Z" fill="#fff"/><path d="M104.53,65.34l.52-1.04c.64.4,1.33.64,2.15.64,1.24,0,1.91-.64,1.91-1.86v-.47c-.5.65-1.13,1.11-2.13,1.11-1.42,0-2.75-1.05-2.75-2.83v-.02c0-1.79,1.34-2.84,2.75-2.84,1.02,0,1.65.47,2.12,1.03v-.91h1.39v4.81c0,1.02-.26,1.78-.77,2.28-.55.55-1.4.81-2.49.81-1,0-1.93-.25-2.7-.72ZM109.12,60.9v-.02c0-1-.81-1.67-1.78-1.67s-1.72.66-1.72,1.66v.02c0,1,.77,1.67,1.72,1.67s1.78-.69,1.78-1.66Z" fill="#fff"/><path d="M117.26,58.16h1.39v.94c.39-.57.95-1.07,1.89-1.07,1.36,0,2.15.92,2.15,2.33v3.85h-1.39v-3.44c0-.94-.47-1.48-1.29-1.48s-1.36.56-1.36,1.5v3.41h-1.39v-6.05Z" fill="#fff"/><path d="M137.89,55.84h1.39v3.25c.39-.57.95-1.07,1.89-1.07,1.36,0,2.15.92,2.15,2.33v3.85h-1.39v-3.44c0-.94-.47-1.48-1.29-1.48s-1.36.56-1.36,1.5v3.41h-1.39v-8.37Z" fill="#fff"/><path d="M149.97,62.01v-3.85h1.39v3.44c0,.94.47,1.48,1.29,1.48s1.36-.56,1.36-1.5v-3.42h1.39v6.05h-1.39v-.94c-.39.57-.95,1.07-1.89,1.07-1.36,0-2.15-.92-2.15-2.33Z" fill="#fff"/><path d="M163.58,63.27v.94h-1.39v-8.37h1.39v3.32c.45-.63,1.08-1.13,2.05-1.13,1.43,0,2.82,1.13,2.82,3.14v.02c0,2.01-1.38,3.14-2.82,3.14-1,0-1.63-.5-2.05-1.07ZM167.04,61.2v-.02c0-1.17-.79-1.94-1.73-1.94s-1.76.78-1.76,1.94v.02c0,1.17.83,1.94,1.76,1.94s1.73-.74,1.73-1.94Z" fill="#fff"/></g></symbol>
</svg>