<svg xmlns="http://www.w3.org/2000/svg" viewBox="0 0 757.33 86"><symbol width="130" height="500" id="the-logo" viewBox="200 200">
	<defs><style>.cls-1{fill:#e62d44;}.cls-2{font-size:12.82px;fill:#fff;font-family:Gotham-Medium, Gotham Medium;letter-spacing:0.4em;}</style></defs><g id="Layer_2" data-name="Layer 2"><g id="Layer_1-2" data-name="Layer 1"><path class="cls-1" d="M129.93,0V24.3H77.84a53.54,53.54,0,1,0,0,107.09h52.09v24.3H77.84A77.84,77.84,0,1,1,77.84,0ZM63.65,89.92h66.29V65.62H63.65Z"/><path class="cls-1" d="M682.41,67.52v88.16h-24.3V67.52a12.15,12.15,0,0,1,24.3,0ZM670.26,34.1a17.05,17.05,0,1,0-17.05-17.05A17.05,17.05,0,0,0,670.26,34.1Z"/><path class="cls-1" d="M351.73,77.84a77.93,77.93,0,0,1-77.84,77.84H221.8v-24.3h52.09a53.54,53.54,0,1,0,0-107.09H253.51a7.41,7.41,0,0,0-7.4,7.4V65.62h-24.3V31.7A31.74,31.74,0,0,1,253.51,0h20.38A77.93,77.93,0,0,1,351.73,77.84Z"/><path class="cls-1" d="M432.59,77.84A77.93,77.93,0,0,1,510.44,0h38.31V24.3H510.44a53.54,53.54,0,1,0,0,107.09h15.61c7.38,0,12.17-5.88,12.17-12.81V90.06h24.3v30.62c0,17.48-17.13,35-34.5,35H510.44A77.93,77.93,0,0,1,432.59,77.84Z"/><text class="cls-2" transform="translate(426.58 224.01)">STUDIO</text></g></g>
</symbol>
	<symbol transform="rotate(90,0,0)" width="50" height="200" id="vertical-logo" xmlns="http://www.w3.org/2000/svg" viewBox="0 0 58.17 174.37"><defs><style>.cls-1{fill:#e62d44;}.cls-2{font-size:11.79px;font-family:Gotham-Medium, Gotham Medium;letter-spacing:0.44em;}</style></defs><g id="Layer_2" data-name="Layer 2"><g id="Layer_1-2" data-name="Layer 1"><path class="cls-1" d="M0,142.34H6v12.84a13.2,13.2,0,1,0,26.4,0V142.34h6v12.84a19.19,19.19,0,1,1-38.38,0Zm22.17,16.34V142.34h-6v16.34Z"/><path class="cls-1" d="M16.65,6.14H38.38v6H16.65a3,3,0,1,1,0-6Zm-8.24,3a4.2,4.2,0,1,0-4.2,4.2A4.2,4.2,0,0,0,8.41,9.14Z"/><path class="cls-1" d="M19.19,87.66a19.21,19.21,0,0,1,19.19,19.19v12.84h-6V106.85a13.2,13.2,0,1,0-26.4,0v5a1.83,1.83,0,0,0,1.83,1.83h8.36v6H7.82A7.82,7.82,0,0,1,0,111.88v-5A19.21,19.21,0,0,1,19.19,87.66Z"/><path class="cls-1" d="M19.19,67.73A19.21,19.21,0,0,1,0,48.54V39.09H6v9.45a13.2,13.2,0,1,0,26.4,0V44.69a3,3,0,0,0-3.16-3h-7v-6h7.55c4.31,0,8.63,4.22,8.63,8.5v4.33A19.21,19.21,0,0,1,19.19,67.73Z"/><text class="cls-2" transform="translate(55.22 69.21) rotate(-90)">STUDIO</text></g></g></symbol>
	<symbol id="vertical_black" xmlns="http://www.w3.org/2000/svg" viewBox="0 0 47.19 141.47"><defs><style>.cls-1{fill:#e62d44;}.cls-2{font-size:9.56px;fill:#050505;font-family:Gotham-Medium, Gotham Medium;letter-spacing:0.44em;}</style></defs><title>vertical_black</title><g id="Layer_2" data-name="Layer 2"><g id="Layer_1-2" data-name="Layer 1"><path class="cls-1" d="M0,115.48H4.86V125.9a10.71,10.71,0,1,0,21.42,0V115.48h4.86V125.9A15.57,15.57,0,1,1,0,125.9Zm18,13.26V115.48H13.12v13.26Z"/><path class="cls-1" d="M13.5,5H31.14V9.84H13.5A2.43,2.43,0,0,1,13.5,5ZM6.82,7.41a3.41,3.41,0,1,0-3.41,3.41A3.41,3.41,0,0,0,6.82,7.41Z"/><path class="cls-1" d="M15.57,71.12A15.59,15.59,0,0,1,31.14,86.69V97.11H26.28V86.69a10.71,10.71,0,1,0-21.42,0v4.08a1.48,1.48,0,0,0,1.48,1.48h6.78V97.1H6.34A6.35,6.35,0,0,1,0,90.76V86.69A15.59,15.59,0,0,1,15.57,71.12Z"/><path class="cls-1" d="M15.57,54.95A15.59,15.59,0,0,1,0,39.38V31.71H4.86v7.66a10.71,10.71,0,1,0,21.42,0V36.25a2.44,2.44,0,0,0-2.56-2.43H18V29h6.12c3.5,0,7,3.43,7,6.9v3.52A15.59,15.59,0,0,1,15.57,54.95Z"/><text class="cls-2" transform="translate(44.8 56.15) rotate(-90)">STUDIO</text></g></g></symbol>
	<symbol id="horizontal_black" xmlns="http://www.w3.org/2000/svg" viewBox="0 0 137.46 44.92"><title>horizontal_small_black_2</title><g id="Layer_2" data-name="Layer 2"><g id="Layer_1-2" data-name="Layer 1"><path d="M26,0V4.86H15.57a10.71,10.71,0,1,0,0,21.42H26v4.86H15.57A15.57,15.57,0,1,1,15.57,0ZM12.73,18H26V13.12H12.73Z" fill="#e62d44"/><path d="M136.48,13.5V31.14h-4.86V13.5a2.43,2.43,0,0,1,4.86,0Zm-2.43-6.68a3.41,3.41,0,1,0-3.41-3.41A3.41,3.41,0,0,0,134.05,6.82Z" fill="#e62d44"/><path d="M70.35,15.57A15.59,15.59,0,0,1,54.78,31.14H44.36V26.28H54.78a10.71,10.71,0,1,0,0-21.42H50.7a1.48,1.48,0,0,0-1.48,1.48v6.78H44.36V6.34A6.35,6.35,0,0,1,50.7,0h4.08A15.59,15.59,0,0,1,70.35,15.57Z" fill="#e62d44"/><path d="M86.52,15.57A15.59,15.59,0,0,1,102.09,0h7.66V4.86h-7.66a10.71,10.71,0,1,0,0,21.42h3.12a2.44,2.44,0,0,0,2.43-2.56V18h4.86v6.12c0,3.5-3.43,7-6.9,7h-3.52A15.59,15.59,0,0,1,86.52,15.57Z" fill="#e62d44"/><path d="M80.08,40.2a.71.71,0,0,0,.24.27,2,2,0,0,0,.49.23q.31.11.79.22a7.63,7.63,0,0,1,.93.3,2.34,2.34,0,0,1,.68.4,1.57,1.57,0,0,1,.41.55,1.78,1.78,0,0,1,.14.73,2,2,0,0,1-.18.85,1.79,1.79,0,0,1-.49.63,2.14,2.14,0,0,1-.75.39,3.28,3.28,0,0,1-1,.13,4.21,4.21,0,0,1-1.48-.26,4,4,0,0,1-1.31-.81l.71-.84a4.14,4.14,0,0,0,1,.65,2.72,2.72,0,0,0,1.13.22,1.46,1.46,0,0,0,.87-.23.73.73,0,0,0,.32-.62.82.82,0,0,0-.06-.33.66.66,0,0,0-.23-.26,1.94,1.94,0,0,0-.46-.22,7.67,7.67,0,0,0-.76-.22,8.18,8.18,0,0,1-1-.28,2.43,2.43,0,0,1-.7-.38,1.53,1.53,0,0,1-.43-.55,1.91,1.91,0,0,1-.15-.79,1.83,1.83,0,0,1,.17-.8,1.88,1.88,0,0,1,.47-.62,2.09,2.09,0,0,1,.72-.4,2.93,2.93,0,0,1,.92-.14,3.86,3.86,0,0,1,1.33.21,4,4,0,0,1,1.1.63l-.63.89a4.08,4.08,0,0,0-.91-.51,2.46,2.46,0,0,0-.91-.18,1.24,1.24,0,0,0-.8.23.71.71,0,0,0-.29.57A.81.81,0,0,0,80.08,40.2Z" fill="#050505"/><path d="M92,44.8H90.85V39.2H88.73V38.11h5.43V39.2H92Z" fill="#050505"/><path d="M105.24,41.9a3.81,3.81,0,0,1-.21,1.31,2.55,2.55,0,0,1-.58.94,2.33,2.33,0,0,1-.9.56,3.55,3.55,0,0,1-1.19.19,3.48,3.48,0,0,1-1.18-.19,2.36,2.36,0,0,1-.9-.56,2.48,2.48,0,0,1-.57-.92,3.71,3.71,0,0,1-.2-1.28V38.11h1.17v3.81a2,2,0,0,0,.45,1.42,1.62,1.62,0,0,0,1.25.49,1.64,1.64,0,0,0,1.24-.47,1.94,1.94,0,0,0,.45-1.4V38.11h1.17Z" fill="#050505"/><path d="M116.86,42.77a3.09,3.09,0,0,1-.73,1.07,3.45,3.45,0,0,1-1.13.71,3.89,3.89,0,0,1-1.44.26h-2.5v-6.7h2.5a4,4,0,0,1,1.44.25,3.4,3.4,0,0,1,1.13.7,3.13,3.13,0,0,1,.73,1.06,3.51,3.51,0,0,1,0,2.64Zm-1.14-2.22a2.16,2.16,0,0,0-.47-.72,2.11,2.11,0,0,0-.73-.48,2.56,2.56,0,0,0-1-.17h-1.32v4.57h1.32a2.62,2.62,0,0,0,1-.17,2.07,2.07,0,0,0,.73-.47,2.1,2.1,0,0,0,.47-.72,2.59,2.59,0,0,0,0-1.83Z" fill="#050505"/><path d="M124,38.11v6.7h-1.17v-6.7Z" fill="#050505"/><path d="M136.43,42.78a3.35,3.35,0,0,1-.73,1.1,3.49,3.49,0,0,1-2.53,1,3.58,3.58,0,0,1-1.42-.27A3.33,3.33,0,0,1,130,42.8a3.61,3.61,0,0,1,0-2.68,3.38,3.38,0,0,1,.73-1.1,3.49,3.49,0,0,1,2.52-1,3.58,3.58,0,0,1,1.42.27,3.32,3.32,0,0,1,1.82,1.84,3.59,3.59,0,0,1,0,2.68Zm-1.14-2.24a2.34,2.34,0,0,0-.47-.76,2.24,2.24,0,0,0-.72-.52,2.31,2.31,0,0,0-1.83,0,2.16,2.16,0,0,0-.71.51,2.32,2.32,0,0,0-.46.76,2.62,2.62,0,0,0,0,1.85,2.35,2.35,0,0,0,.47.76,2.22,2.22,0,0,0,.72.52,2.23,2.23,0,0,0,2.54-.5,2.32,2.32,0,0,0,.46-.75,2.64,2.64,0,0,0,0-1.85Z" fill="#050505"/></g></g></symbol>
</svg>