<svg xmlns="http://www.w3.org/2000/svg" viewBox="0 0 58.17 174.37"><defs><style>.cls-1{fill:#e62d44;}.cls-2{font-size:11.79px;font-family:Gotham-Medium, Gotham Medium;letter-spacing:0.44em;}</style></defs><title>vertical</title><g id="Layer_2" data-name="Layer 2"><g id="Layer_1-2" data-name="Layer 1"><path class="cls-1" d="M0,142.34H6v12.84a13.2,13.2,0,1,0,26.4,0V142.34h6v12.84a19.19,19.19,0,1,1-38.38,0Zm22.17,16.34V142.34h-6v16.34Z"/><path class="cls-1" d="M16.65,6.14H38.38v6H16.65a3,3,0,1,1,0-6Zm-8.24,3a4.2,4.2,0,1,0-4.2,4.2A4.2,4.2,0,0,0,8.41,9.14Z"/><path class="cls-1" d="M19.19,87.66a19.21,19.21,0,0,1,19.19,19.19v12.84h-6V106.85a13.2,13.2,0,1,0-26.4,0v5a1.83,1.83,0,0,0,1.83,1.83h8.36v6H7.82A7.82,7.82,0,0,1,0,111.88v-5A19.21,19.21,0,0,1,19.19,87.66Z"/><path class="cls-1" d="M19.19,67.73A19.21,19.21,0,0,1,0,48.54V39.09H6v9.45a13.2,13.2,0,1,0,26.4,0V44.69a3,3,0,0,0-3.16-3h-7v-6h7.55c4.31,0,8.63,4.22,8.63,8.5v4.33A19.21,19.21,0,0,1,19.19,67.73Z"/><text class="cls-2" transform="translate(55.22 69.21) rotate(-90)">STUDIO</text></g></g></svg>